<?xml version="1.0" encoding="utf-8"?>
<!-- Generator: Adobe Illustrator 16.0.3, SVG Export Plug-In . SVG Version: 6.00 Build 0)  -->
<!DOCTYPE svg PUBLIC "-//W3C//DTD SVG 1.1//EN" "http://www.w3.org/Graphics/SVG/1.1/DTD/svg11.dtd">
<svg version="1.1" id="Layer_1" xmlns="http://www.w3.org/2000/svg" xmlns:xlink="http://www.w3.org/1999/xlink" x="0px" y="0px"
	 width="361.152px" height="119.232px" viewBox="0 0 361.152 119.232" enable-background="new 0 0 361.152 119.232"
	 xml:space="preserve">
<g>
	<g>
		<polygon fill-rule="evenodd" clip-rule="evenodd" fill="#FFFFFF" points="161.137,2.664 163.943,1.872 166.824,1.224 
			169.775,0.648 172.8,0.288 175.824,0.072 178.848,0 181.872,0.072 184.896,0.288 187.848,0.648 190.8,1.224 193.68,1.872 
			196.488,2.664 199.296,3.6 200.88,4.248 246.6,4.248 247.68,4.248 248.904,4.32 250.128,4.392 251.28,4.536 252.432,4.68 
			253.584,4.896 254.664,5.184 255.744,5.472 256.824,5.76 257.832,6.12 258.84,6.479 259.775,6.84 260.712,7.272 261.576,7.704 
			262.439,8.136 263.305,8.64 264.023,9.144 264.816,9.576 265.464,10.08 266.184,10.584 266.832,11.088 267.408,11.592 
			267.48,11.664 267.696,11.448 268.271,10.872 268.92,10.296 269.568,9.792 270.216,9.288 270.864,8.856 271.512,8.352 
			272.232,7.992 272.952,7.56 273.672,7.2 274.393,6.84 275.112,6.479 275.832,6.192 276.624,5.904 277.416,5.688 278.208,5.472 
			279,5.256 279.792,5.04 280.584,4.896 281.376,4.68 282.24,4.608 283.032,4.464 283.896,4.392 284.76,4.32 285.624,4.248 
			286.416,4.248 287.352,4.248 288.145,4.248 344.305,4.248 345.168,4.248 345.96,4.32 346.824,4.392 347.688,4.536 348.48,4.752 
			349.271,4.968 350.064,5.256 350.855,5.544 351.576,5.904 352.296,6.264 353.016,6.696 353.736,7.128 354.384,7.56 355.032,8.064 
			355.607,8.64 356.184,9.144 356.76,9.792 357.264,10.368 357.768,11.016 358.271,11.664 358.704,12.384 359.137,13.032 
			359.496,13.824 359.855,14.544 360.145,15.336 360.359,16.128 360.648,16.92 360.792,17.712 360.936,18.576 361.08,19.368 
			361.152,20.232 361.152,21.096 361.152,97.848 361.152,98.712 361.08,99.576 360.936,100.367 360.792,101.232 360.648,102.023 
			360.359,102.816 360.145,103.607 359.855,104.4 359.496,105.119 359.137,105.84 358.704,106.56 358.271,107.279 357.768,107.928 
			357.264,108.576 356.76,109.152 356.184,109.728 355.607,110.304 355.032,110.88 354.384,111.384 353.736,111.816 
			353.016,112.248 352.296,112.68 351.576,113.039 350.855,113.4 350.064,113.688 349.271,113.976 348.48,114.191 347.688,114.408 
			346.824,114.552 345.96,114.623 345.168,114.695 344.305,114.695 291.672,114.695 290.592,114.695 289.512,114.623 
			288.432,114.623 287.424,114.479 286.416,114.408 285.408,114.264 284.473,114.119 283.536,113.976 282.6,113.76 281.664,113.544 
			280.729,113.328 279.864,113.039 279,112.752 278.137,112.464 277.271,112.104 276.48,111.744 275.688,111.384 274.896,110.951 
			274.104,110.447 273.384,110.016 272.664,109.512 271.943,109.008 271.225,108.432 270.504,107.855 269.855,107.279 
			269.208,106.632 268.632,105.984 268.416,105.768 267.84,106.344 267.12,107.064 266.4,107.712 265.68,108.287 264.96,108.936 
			264.168,109.439 263.448,110.016 262.656,110.52 261.864,110.951 261.072,111.384 260.28,111.816 259.416,112.176 
			258.624,112.535 257.76,112.824 256.969,113.111 256.104,113.4 255.24,113.615 254.305,113.832 253.439,114.048 252.576,114.191 
			251.641,114.336 250.775,114.479 249.84,114.552 248.904,114.623 247.969,114.695 247.032,114.695 246.023,114.695 
			245.088,114.695 201.6,114.695 199.296,115.632 196.488,116.568 193.68,117.359 190.8,118.008 187.848,118.584 184.896,118.943 
			181.872,119.16 178.848,119.232 175.824,119.16 172.8,118.943 169.775,118.584 166.824,118.008 163.943,117.359 161.137,116.568 
			158.328,115.632 155.592,114.552 153,113.328 150.408,112.031 147.889,110.592 145.513,109.08 143.137,107.424 140.904,105.623 
			138.744,103.752 136.656,101.808 134.712,99.72 132.84,97.56 131.04,95.328 129.385,92.951 127.8,90.504 126.36,88.056 
			125.712,86.688 119.736,100.728 119.305,101.52 118.944,102.24 118.584,102.96 118.152,103.607 117.721,104.328 117.288,104.976 
			116.856,105.623 116.353,106.271 115.92,106.92 115.416,107.496 114.912,108.072 114.336,108.648 113.761,109.224 
			113.185,109.728 112.608,110.232 112.032,110.736 111.385,111.168 110.736,111.6 110.017,112.031 109.368,112.392 
			108.648,112.752 107.856,113.111 107.137,113.4 106.345,113.688 105.553,113.904 104.761,114.119 103.969,114.336 
			103.104,114.479 102.24,114.552 101.376,114.623 100.513,114.695 99.648,114.695 16.849,114.695 15.984,114.695 15.192,114.623 
			14.328,114.552 13.464,114.408 12.672,114.191 11.88,113.976 11.088,113.688 10.296,113.4 9.576,113.039 8.856,112.68 
			8.137,112.248 7.416,111.816 6.769,111.384 6.12,110.88 5.544,110.304 4.969,109.728 4.393,109.152 3.889,108.576 3.385,107.928 
			2.88,107.279 2.448,106.56 2.017,105.84 1.656,105.119 1.296,104.4 1.008,103.607 0.792,102.816 0.504,102.023 0.36,101.232 
			0.216,100.367 0.072,99.576 0,98.712 0,97.848 0,21.096 0,20.232 0.072,19.368 0.216,18.576 0.36,17.712 0.504,16.92 
			0.792,16.128 1.008,15.336 1.296,14.544 1.656,13.824 2.017,13.032 2.448,12.384 2.88,11.664 3.385,11.016 3.889,10.368 
			4.393,9.792 4.969,9.144 5.544,8.64 6.12,8.064 6.769,7.56 7.416,7.128 8.137,6.696 8.856,6.264 9.576,5.904 10.296,5.544 
			11.088,5.256 11.88,4.968 12.672,4.752 13.464,4.536 14.328,4.392 15.192,4.32 15.984,4.248 16.849,4.248 70.776,4.248 
			71.929,4.248 73.225,4.32 74.448,4.464 75.744,4.68 76.969,4.896 78.192,5.256 79.416,5.616 80.641,6.048 81.721,6.552 
			82.872,7.056 83.88,7.632 84.889,8.208 85.824,8.856 86.761,9.576 87.624,10.224 88.416,10.944 88.704,11.304 89.208,10.8 
			89.712,10.296 90.216,9.864 90.721,9.432 91.225,9 91.729,8.568 92.305,8.136 92.88,7.776 93.456,7.416 94.032,7.056 
			94.608,6.696 95.256,6.408 95.832,6.12 96.48,5.832 97.128,5.616 97.776,5.328 98.424,5.112 99.072,4.968 99.792,4.752 
			100.44,4.608 101.16,4.536 101.88,4.392 102.601,4.32 103.32,4.248 104.04,4.248 104.761,4.248 155.664,4.248 156.744,4.248 
			158.328,3.6 		"/>
		<path fill-rule="evenodd" clip-rule="evenodd" fill="#003589" d="M16.92,7.632h26.425h1.512h25.848h1.08l1.08,0.072l1.152,0.144
			l1.151,0.144l1.08,0.216l1.08,0.288l1.008,0.36l1.009,0.36l1.008,0.432l0.936,0.432l0.937,0.504l0.863,0.504l0.792,0.576
			l0.792,0.576l0.721,0.576l0.647,0.648l0.648,0.576l0.576,0.648l0.575,0.576l0.505,0.648l0.432,0.576l0,0
			c4.032-5.544,9.144-8.856,15.984-8.856h50.903h1.729l2.088-0.864l2.664-0.864l2.664-0.72l2.735-0.648l2.736-0.504l2.808-0.36
			l2.881-0.216l2.879-0.072l2.809,0.072l2.88,0.216l2.808,0.36l2.736,0.504l2.736,0.648l2.664,0.72l2.664,0.864l2.088,0.864h46.295
			h1.009l1.151,0.072l1.08,0.072l1.08,0.144l1.008,0.144l1.009,0.216l1.008,0.216l1.008,0.216L255.816,9l0.863,0.288l0.937,0.36
			l0.792,0.36l0.863,0.36l0.793,0.36l0.72,0.432l0.72,0.432l0.721,0.36l0.647,0.504l0.647,0.432l0.576,0.432l0.576,0.432
			l0.504,0.432l0.504,0.432l0.433,0.432l0.432,0.432l0.433,0.36l0.359,0.36l0.288,0.432h0.072c4.68-6.552,11.808-9.144,20.448-9
			h28.151h7.849h20.088c7.488,0,13.535,6.048,13.535,13.464v76.752c0,7.416-6.047,13.464-13.535,13.464H326.88h-10.584h-24.552
			c-11.16-0.144-17.928-3.312-23.256-10.872c-6.408,8.424-13.536,10.944-23.4,10.872h-44.136l-0.288,0.144l-2.52,1.009l-2.664,0.864
			l-2.664,0.72l-2.736,0.647l-2.736,0.504l-2.808,0.36l-2.88,0.216l-2.809,0.072l-2.879-0.072l-2.881-0.216l-2.808-0.36
			l-2.736-0.504l-2.735-0.647l-2.664-0.72l-2.664-0.864l-2.521-1.009l-2.52-1.151l-2.448-1.224l-2.304-1.368l-2.304-1.513
			l-2.232-1.512l-2.088-1.656l-2.017-1.799l-2.016-1.873l-1.8-1.943l-1.8-2.016l-1.656-2.16l-1.584-2.16l-1.44-2.305l-1.367-2.375
			l-1.225-2.449l-1.152-2.447L126,78.912l-0.288-0.937l-9.071,21.312c-3.528,7.201-8.641,12.024-17.064,12.024H87.12h-7.488H16.92
			c-7.487,0-13.535-6.048-13.535-13.464V21.096C3.385,13.68,9.433,7.632,16.92,7.632z"/>
		<path fill-rule="evenodd" clip-rule="evenodd" fill="#F70B28" d="M254.232,99.359h-38.809l31.248-40.607l-30.744-39.168
			c0,0,22.465,0,30.528,0c7.992,0,11.592,4.104,12.815,5.688c1.297,1.512,26.353,32.976,26.353,32.976L254.232,99.359z"/>
		<polygon fill-rule="evenodd" clip-rule="evenodd" fill="#FFFFFF" points="293.328,63.504 321.336,99.359 282.744,99.359 
			274.176,88.271 		"/>
		<polygon fill-rule="evenodd" clip-rule="evenodd" fill="#FFFFFF" points="273.168,28.8 280.8,19.584 319.176,19.584 
			293.473,53.136 		"/>
		<path fill-rule="evenodd" clip-rule="evenodd" fill="#FFFFFF" d="M178.848,15.336L178.848,15.336
			c24.408,0,44.209,19.872,44.209,44.28c0,24.408-19.801,44.28-44.209,44.28l0,0V75.527l0,0c8.713,0,15.84-7.127,15.84-15.912
			c0-8.784-7.127-15.912-15.84-15.912l0,0V15.336z M134.568,59.616c0-24.408,19.8-44.28,44.279-44.28v28.368
			c-8.783,0.072-15.912,7.128-15.912,15.912c0,8.785,7.129,15.839,15.912,15.912v28.368
			C154.368,103.896,134.568,84.023,134.568,59.616z"/>
		<path fill-rule="evenodd" clip-rule="evenodd" fill="#FFFFFF" d="M75.168,99.359L41.185,19.584c0,0,22.464,0,29.447,0
			c6.912,0,9.145,4.68,10.08,6.768c0.864,2.088,8.641,25.56,8.641,25.56l11.016-32.328h37.224l-33.983,79.775H75.168z"/>
		<path fill="#FFFFFF" d="M309.744,71.064V47.88h13.68v2.16h-11.088v7.776h8.208v2.088h-8.208v11.161H309.744L309.744,71.064z
			 M327.023,71.064V47.88h3.961l6.552,19.584l6.479-19.584h3.744v23.185h-2.447V50.616l-7.057,20.449h-1.728l-6.984-20.449v20.449
			H327.023z"/>
		<path fill="#FFFFFF" d="M18.937,97.199h3.527V93.96c0-1.944-0.287-3.384-0.863-4.32c-0.504-0.864-1.44-1.296-2.593-1.296h-0.071
			v-2.16c1.224,0,2.16,0.36,2.952,1.008c0.863,0.648,1.439,1.656,1.8,3.024l9.288-4.536v2.305l-8.712,4.248v4.967h8.712v2.088
			h-14.04V97.199L18.937,97.199z M18.937,78.048v-2.017l6.264,1.801v-6.049l-6.264,1.801v-2.088l14.04-4.32v2.304L27,71.207v7.129
			l5.977,1.729v2.303L18.937,78.048L18.937,78.048z M18.937,62.496v-2.088h12.168v-1.656c0-1.44-0.072-2.592-0.288-3.456
			c-0.216-0.864-0.576-1.584-1.08-2.16c-0.576-0.792-1.512-1.44-2.592-1.872s-2.376-0.648-3.816-0.648
			c-1.512,0-2.808,0.216-3.96,0.648c-0.144,0.072-0.288,0.072-0.432,0.144v-2.16c1.296-0.504,2.808-0.72,4.392-0.72
			c3.24,0,5.616,0.864,7.272,2.52c1.584,1.656,2.376,4.104,2.376,7.416v4.032H18.937L18.937,62.496z M18.937,42.696v-2.232h14.04
			v2.232H18.937L18.937,42.696z M18.937,34.272v-2.16c1.224,0.432,2.664,0.648,4.392,0.648c2.592,0,4.536-0.504,5.977-1.512
			c1.439-0.936,2.159-2.304,2.159-3.96c0-1.728-0.72-3.096-2.159-4.032c-1.44-1.008-3.385-1.512-5.977-1.512
			c-1.728,0-3.168,0.216-4.392,0.648v-2.16c1.296-0.432,2.735-0.648,4.392-0.648c3.024,0,5.472,0.72,7.272,2.088
			c1.8,1.44,2.735,3.24,2.735,5.616c0,2.304-0.936,4.104-2.735,5.544C28.8,34.2,26.353,34.92,23.328,34.92
			C21.672,34.92,20.232,34.704,18.937,34.272z M15.48,93.888v3.312h3.456v2.088h-5.256v-5.399c0-2.664,0.432-4.681,1.224-5.903
			c0.792-1.225,2.088-1.801,3.888-1.801h0.145v2.16c-1.296,0-2.16,0.432-2.664,1.152C15.769,90.287,15.48,91.8,15.48,93.888
			L15.48,93.888z M18.937,20.232v2.16c-0.576,0.216-1.08,0.504-1.584,0.864c-1.44,0.936-2.16,2.304-2.16,4.032
			c0,1.656,0.72,3.024,2.16,3.96c0.504,0.36,1.008,0.648,1.584,0.864v2.16c-1.08-0.288-2.017-0.792-2.88-1.44
			c-1.801-1.368-2.664-3.24-2.664-5.544c0-2.376,0.863-4.176,2.664-5.616C16.92,21.024,17.856,20.592,18.937,20.232L18.937,20.232z
			 M18.937,40.464v2.232h-5.256v-2.232H18.937L18.937,40.464z M18.937,49.248v2.16c-0.864,0.432-1.656,1.008-2.232,1.728
			c-0.432,0.576-0.72,1.296-0.936,2.016c-0.216,0.792-0.288,1.872-0.288,3.312v1.944h3.456v2.088h-5.256V57.96
			c0-1.44,0.144-2.664,0.359-3.6s0.648-1.8,1.152-2.52c0.864-1.08,1.944-1.872,3.312-2.448
			C18.648,49.32,18.792,49.248,18.937,49.248L18.937,49.248z M18.937,71.496v2.088l-3.816,1.08v0.287l3.816,1.08v2.017l-5.256-1.656
			v-3.239L18.937,71.496z"/>
	</g>
</g>
</svg>
